<svg xmlns="http://www.w3.org/2000/svg" style="display:none">
  <symbol id="icon-pullrequest" viewBox="0 0 16 16">

  <path fill="currentColor" fill-rule="evenodd" d="M10,0 L10,2.60002 C12.2108812,3.04881281 13.8920863,4.95644867 13.9950026,7.27443311 L14,7.5 L14,11.2676 C14.5978,11.6134 15,12.2597 15,13 C15,14.1046 14.1046,15 13,15 C11.8954,15 11,14.1046 11,13 C11,12.3166462 11.342703,11.713387 11.8656124,11.3526403 L12,11.2676 L12,7.5 C12,6.259091 11.246593,5.19415145 10.1722389,4.73766702 L10,4.67071 L10,7 L6,3.5 L10,0 Z M3,1 C4.10457,1 5,1.89543 5,3 C5,3.68333538 4.65729704,4.28663574 4.13438762,4.6473967 L4,4.73244 L4,11.2676 C4.5978,11.6134 5,12.2597 5,13 C5,14.1046 4.10457,15 3,15 C1.89543,15 1,14.1046 1,13 C1,12.3166462 1.34270296,11.713387 1.86561238,11.3526403 L2,11.2676 L2,4.73244 C1.4022,4.38663 1,3.74028 1,3 C1,1.89543 1.89543,1 3,1 Z"/>
  </symbol>
  <symbol id="icon-folder" viewBox="0 0 24 24">

<path d="M3 8.2C3 7.07989 3 6.51984 3.21799 6.09202C3.40973 5.71569 3.71569 5.40973 4.09202 5.21799C4.51984 5 5.0799 5 6.2 5H9.67452C10.1637 5 10.4083 5 10.6385 5.05526C10.8425 5.10425 11.0376 5.18506 11.2166 5.29472C11.4184 5.4184 11.5914 5.59135 11.9373 5.93726L12.0627 6.06274C12.4086 6.40865 12.5816 6.5816 12.7834 6.70528C12.9624 6.81494 13.1575 6.89575 13.3615 6.94474C13.5917 7 13.8363 7 14.3255 7H17.8C18.9201 7 19.4802 7 19.908 7.21799C20.2843 7.40973 20.5903 7.71569 20.782 8.09202C21 8.51984 21 9.0799 21 10.2V15.8C21 16.9201 21 17.4802 20.782 17.908C20.5903 18.2843 20.2843 18.5903 19.908 18.782C19.4802 19 18.9201 19 17.8 19H6.2C5.07989 19 4.51984 19 4.09202 18.782C3.71569 18.5903 3.40973 18.2843 3.21799 17.908C3 17.4802 3 16.9201 3 15.8V8.2Z" stroke="currentColor" stroke-width="2" stroke-linecap="round" stroke-linejoin="round"/>
  </symbol>
  <symbol id="icon-commit" viewBox="0 0 16 16">

  <path fill="currentColor" fill-rule="evenodd" d="M11.8759,8.99237 C11.4346,10.7215 9.86658,12 8,12 C6.13342,12 4.56545,10.7215 4.12406,8.99238 C4.08342,8.99741 4.04201,9 4,9 L1,9 C0.447715,9 0,8.55228 0,8 C0,7.44771 0.447715,7 1,7 L4,7 C4.04201,7 4.08342,7.00259 4.12406,7.00762 C4.56545,5.27853 6.13342,4 8,4 C9.86658,4 11.4346,5.27853 11.8759,7.00763 C11.9166,7.00259 11.958,7 12,7 L15,7 C15.5523,7 16,7.44772 16,8 C16,8.55228 15.5523,9 15,9 L12,9 C11.958,9 11.9166,8.9974 11.8759,8.99237 Z M8,10 C9.10457,10 10,9.10457 10,8 C10,6.89543 9.10457,6 8,6 C6.89543,6 6,6.89543 6,8 C6,9.10457 6.89543,10 8,10 Z"/>
  </symbol>
  <symbol id="icon-structure" viewBox="0 0 24 24">
<path d="M12,7h8a1,1,0,0,0,1-1V2a1,1,0,0,0-1-1H12a1,1,0,0,0-1,1V3H5V2A1,1,0,0,0,3,2V20a1,1,0,0,0,1,1h7v1a1,1,0,0,0,1,1h8a1,1,0,0,0,1-1V18a1,1,0,0,0-1-1H12a1,1,0,0,0-1,1v1H5V13h6v1a1,1,0,0,0,1,1h8a1,1,0,0,0,1-1V10a1,1,0,0,0-1-1H12a1,1,0,0,0-1,1v1H5V5h6V6A1,1,0,0,0,12,7Zm1,12h6v2H13Zm0-8h6v2H13Zm0-8h6V5H13Z"/>
  </symbol>
  <symbol id="icon-more" viewBox="0 -0.5 25 25">

<g id="SVGRepo_bgCarrier" stroke-width="0"/>
<g id="SVGRepo_tracerCarrier" stroke-linecap="round" stroke-linejoin="round"/>
<g id="SVGRepo_iconCarrier"> <path fill-rule="evenodd" clip-rule="evenodd" d="M8.5 12C8.5 13.1046 7.60457 14 6.5 14C5.39543 14 4.5 13.1046 4.5 12C4.5 10.8954 5.39543 10 6.5 10C7.03043 10 7.53914 10.2107 7.91421 10.5858C8.28929 10.9609 8.5 11.4696 8.5 12Z" stroke="currentColor" stroke-width="1.5" stroke-linecap="round" stroke-linejoin="round"/> <path fill-rule="evenodd" clip-rule="evenodd" d="M14.5 12C14.5 13.1046 13.6046 14 12.5 14C11.3954 14 10.5 13.1046 10.5 12C10.5 10.8954 11.3954 10 12.5 10C13.6046 10 14.5 10.8954 14.5 12Z" stroke="currentColor" stroke-width="1.5" stroke-linecap="round" stroke-linejoin="round"/> <path fill-rule="evenodd" clip-rule="evenodd" d="M20.5 12C20.5 13.1046 19.6046 14 18.5 14C17.3954 14 16.5 13.1046 16.5 12C16.5 10.8954 17.3954 10 18.5 10C19.6046 10 20.5 10.8954 20.5 12Z" stroke="currentColor" stroke-width="1.5" stroke-linecap="round" stroke-linejoin="round"/> </g>

  </symbol>
  <symbol id="icon-terminal" viewBox="0 0 24 24">

    <title>terminal_fill</title>
    <g id="页面-1" stroke="none" stroke-width="1" fill="none" fill-rule="evenodd">
        <g id="Development" transform="translate(-432.000000, -48.000000)" fill-rule="nonzero">
            <g id="terminal_fill" transform="translate(432.000000, 48.000000)">
                <path d="M24,0 L24,24 L0,24 L0,0 L24,0 Z M12.5934901,23.257841 L12.5819402,23.2595131 L12.5108777,23.2950439 L12.4918791,23.2987469 L12.4918791,23.2987469 L12.4767152,23.2950439 L12.4056548,23.2595131 C12.3958229,23.2563662 12.3870493,23.2590235 12.3821421,23.2649074 L12.3780323,23.275831 L12.360941,23.7031097 L12.3658947,23.7234994 L12.3769048,23.7357139 L12.4804777,23.8096931 L12.4953491,23.8136134 L12.4953491,23.8136134 L12.5071152,23.8096931 L12.6106902,23.7357139 L12.6232938,23.7196733 L12.6232938,23.7196733 L12.6266527,23.7031097 L12.609561,23.275831 C12.6075724,23.2657013 12.6010112,23.2592993 12.5934901,23.257841 L12.5934901,23.257841 Z M12.8583906,23.1452862 L12.8445485,23.1473072 L12.6598443,23.2396597 L12.6498822,23.2499052 L12.6498822,23.2499052 L12.6471943,23.2611114 L12.6650943,23.6906389 L12.6699349,23.7034178 L12.6699349,23.7034178 L12.678386,23.7104931 L12.8793402,23.8032389 C12.8914285,23.8068999 12.9022333,23.8029875 12.9078286,23.7952264 L12.9118235,23.7811639 L12.8776777,23.1665331 C12.8752882,23.1545897 12.8674102,23.1470016 12.8583906,23.1452862 L12.8583906,23.1452862 Z M12.1430473,23.1473072 C12.1332178,23.1423925 12.1221763,23.1452606 12.1156365,23.1525954 L12.1099173,23.1665331 L12.0757714,23.7811639 C12.0751323,23.7926639 12.0828099,23.8018602 12.0926481,23.8045676 L12.108256,23.8032389 L12.3092106,23.7104931 L12.3186497,23.7024347 L12.3186497,23.7024347 L12.3225043,23.6906389 L12.340401,23.2611114 L12.337245,23.2485176 L12.337245,23.2485176 L12.3277531,23.2396597 L12.1430473,23.1473072 Z" id="MingCute" fill-rule="nonzero">
</path>
                <path d="M20.0001,16.5001 C20.8285,16.5001 21.5001,17.1717 21.5001,18.0001 C21.5001,18.7797706 20.9051879,19.4205457 20.1445558,19.4932332 L20.0001,19.5001 L12.0001,19.5001 C11.1717,19.5001 10.5001,18.8285 10.5001,18.0001 C10.5001,17.2204294 11.0950121,16.5796543 11.8556442,16.5069668 L12.0001,16.5001 L20.0001,16.5001 Z M3.2826,5.2826 C3.83177813,4.73343125 4.70084297,4.6991082 5.28999869,5.17963086 L5.40392,5.2826 L11.0608,10.9395 C11.6099875,11.4885938 11.6443117,12.3576973 11.1637727,12.9468746 L11.0608,13.0608 L5.40392,18.7176 C4.81814,19.3034 3.86839,19.3034 3.2826,18.7176 C2.73343125,18.1684125 2.6991082,17.299391 3.17963086,16.7102243 L3.2826,16.5963 L7.8788,12.0001 L3.2826,7.40392 C2.69682,6.81814 2.69682,5.86839 3.2826,5.2826 Z" id="形状" fill="currentColor">
</path>
            </g>
        </g>
    </g>
  </symbol>
  <symbol id="icon-package" viewBox="0 0 24 24">

<path d="M10 13H14M19 9V20H5V9M19 9H5M19 9C19.5523 9 20 8.55228 20 8V5C20 4.44772 19.5523 4 19 4H5C4.44772 4 4 4.44772 4 5V8C4 8.55228 4.44772 9 5 9" stroke="currentColor" stroke-width="1.5" stroke-linecap="round" stroke-linejoin="round"/>
  </symbol>
  <symbol id="icon-java" viewBox="0 0 512 512">


<g id="5151e0c8492e5103c096af88a51e8d81">

<path display="inline" d="M193.918,208.369c-4.729-10.456-6.849-22.652-3.236-33.731c3.612-11.327,11.703-20.413,19.794-28.878
		c22.525-22.531,50.285-39.085,72.316-61.986c12.197-12.573,22.278-27.634,25.762-44.937c2.864-12.695,1.496-25.764-1.117-38.337
		c11.7,13.319,15.559,32.363,12.197,49.541c-3.608,19.292-14.316,36.344-26.886,51.031c-10.081,11.827-21.659,22.282-33.731,31.993
		c-14.065,11.327-27.88,23.524-36.716,39.457c-7.472,12.943-9.215,28.876-4.11,42.942c8.341,24.146,27.756,42.071,38.338,64.848
		c-11.703-10.332-23.152-21.036-33.86-32.361C211.471,236.001,200.889,223.307,193.918,208.369z M257.398,189.448
		c-2.115,19.792,8.213,38.462,20.539,53.151c5.972,6.596,11.076,14.687,11.323,23.899c0.251,12.318-6.716,23.774-15.684,31.861
		c2.119-0.246,3.612-2.115,5.355-3.11c13.443-8.589,26.385-19.418,32.982-34.227c4.357-10.083,3.362-22.034-2.362-31.371
		c-6.724-10.953-15.559-20.662-20.786-32.61c-2.867-6.721-3.862-14.562-1.496-21.657c3.114-9.583,9.834-17.426,16.93-24.272
		c19.54-18.544,43.189-31.743,65.844-46.179c-28.629,8.214-56.883,19.542-81.03,37.343
		C273.702,153.727,259.515,169.658,257.398,189.448z M393.447,283.052c13.568,0.748,26.882,10.704,29.374,24.397
		c2.366,11.825-3.358,23.524-10.705,32.485c-12.075,14.438-28.382,24.771-44.807,33.609c-1.622,0.991-2.99,2.237-4.235,3.608
		c21.659-5.478,43.314-13.689,60.867-27.756c9.705-8.091,18.294-18.799,20.163-31.619c1.743-11.076-2.86-22.528-11.077-29.871
		c-9.96-9.09-24.021-12.448-37.218-10.704c-7.593,0.995-15.931,2.613-21.158,8.961C380.877,284.921,386.971,282.429,393.447,283.052
		z M123.22,318.647c16.303,4.357,33.108,5.603,49.787,6.724c14.936,0.995,29.875,1.246,44.937,1.12
		c38.833-0.619,77.916-3.236,116.003-11.699c3.608-0.87,7.593-1.493,10.833-3.733c6.347-4.11,13.313-7.347,20.162-10.583
		c-30.995,4.979-62.113,9.215-93.478,11.205c-31.74,1.991-63.731,3.236-95.593,1.121c-9.086-0.87-18.423-1.371-26.886-4.858
		c-1.994-0.87-4.733-2.609-3.738-5.227c1.869-3.361,5.603-4.977,8.839-6.72c13.694-6.473,28.629-10.081,43.193-14.313
		c-25.021-0.376-49.916,5.971-72.814,15.806c-5.105,2.491-10.83,4.481-14.936,8.714c-1.622,1.739-1.622,4.732,0.247,6.222
		C113.511,315.787,118.487,317.28,123.22,318.647z M324.864,352.88c-21.784,3.859-43.694,7.472-65.726,8.589
		c-24.147,1.618-48.294,0.247-72.191-2.241c-4.604-0.623-9.211-1.368-13.317-3.483c-2.116-1.246-4.231-3.236-4.106-5.854
		c0.247-4.106,3.73-6.967,6.222-9.956c-7.715,2.739-15.434,5.599-21.906,10.708c-2.742,2.116-5.478,5.474-4.733,9.208
		c1.125,4.356,5.356,6.97,9.09,8.96c9.208,4.733,19.54,6.846,29.625,8.714c25.511,4.11,51.527,4.235,77.167,2.488
		c27.141-2.115,54.148-6.594,80.411-14.313C337.932,362.342,330.836,358.479,324.864,352.88z M188.068,395.951
		c-6.97,1.99-14.066,4.357-19.79,8.957c-2.868,2.241-5.105,6.104-3.734,9.713c1.743,4.604,6.1,7.347,10.203,9.705
		c10.708,5.854,22.78,8.589,34.604,10.708c26.765,4.229,54.27,3.608,80.908-1.12c15.806-2.989,31.615-7.221,46.301-13.815
		c-9.584-3.984-18.917-8.467-27.878-13.693c-15.559,2.738-31.246,5.603-47.178,6.598c-21.032,1.618-42.319-0.125-63.355-2.738
		c-4.98-1.121-11.202-1.618-14.563-5.976C181.847,400.677,185.828,398.063,188.068,395.951z M358.345,475.982
		c17.424-3.604,34.977-7.719,50.908-15.806c4.976-2.867,11.076-5.979,12.698-11.95c0.87-5.725-5.105-8.714-9.337-11.08
		c2.613,2.993,4.356,7.347,1.74,10.83c-4.357,5.853-11.821,8.091-18.42,10.332c-20.66,5.85-42.072,8.216-63.355,10.582
		c-56.385,5.102-113.146,6.348-169.528,1.618c-18.92-1.994-38.217-4.109-56.264-10.829c-2.86-1.246-7.217-2.492-7.217-6.352
		c1.117-3.354,4.357-5.227,7.217-6.845c12.945-6.595,27.384-10.207,41.822-11.077c-4.228-2.491-9.208-2.738-14.062-2.613
		c-12.076,0.373-23.9,3.483-35.349,7.347c-9.834,3.604-19.916,7.59-27.76,14.811c-3.111,2.735-5.971,7.962-2.739,11.699
		c4.98,5.353,12.699,6.72,19.54,8.338c38.338,6.599,77.171,10.328,116.011,11.699C255.781,488.184,307.684,485.942,358.345,475.982z
		 M409.378,482.706c-23.402,7.468-47.672,11.574-71.822,14.936c-41.696,5.227-83.769,6.845-125.716,5.603
		c-25.515-0.995-51.03-2.738-76.176-6.974c5.85,3.984,13.071,5.227,19.794,7.096c28.257,5.976,57.255,7.096,86.01,7.966
		c42.19,0.748,84.387-0.87,125.962-7.468c19.669-3.48,39.459-7.715,57.13-16.927c9.215-4.854,18.552-12.326,20.163-23.152
		C435.391,473.741,421.951,478.349,409.378,482.706z">

</path>

</g>

  </symbol>
  <symbol id="icon-readme" viewBox="0 0 24 24">

<path d="M19.8978 16H7.89778C6.96781 16 6.50282 16 6.12132 16.1022C5.08604 16.3796 4.2774 17.1883 4 18.2235" stroke="currentColor" stroke-width="1.5"/>
<path d="M8 7H16" stroke="currentColor" stroke-width="1.5" stroke-linecap="round"/>
<path d="M8 10.5H13" stroke="currentColor" stroke-width="1.5" stroke-linecap="round"/>
<path d="M13 16V19.5309C13 19.8065 13 19.9443 12.9051 20C12.8103 20.0557 12.6806 19.9941 12.4211 19.8708L11.1789 19.2808C11.0911 19.2391 11.0472 19.2182 11 19.2182C10.9528 19.2182 10.9089 19.2391 10.8211 19.2808L9.57889 19.8708C9.31943 19.9941 9.18971 20.0557 9.09485 20C9 19.9443 9 19.8065 9 19.5309V16.45" stroke="currentColor" stroke-width="1.5" stroke-linecap="round"/>
<path d="M10 22C7.17157 22 5.75736 22 4.87868 21.1213C4 20.2426 4 18.8284 4 16V8C4 5.17157 4 3.75736 4.87868 2.87868C5.75736 2 7.17157 2 10 2H14C16.8284 2 18.2426 2 19.1213 2.87868C20 3.75736 20 5.17157 20 8M14 22C16.8284 22 18.2426 22 19.1213 21.1213C20 20.2426 20 18.8284 20 16V12" stroke="currentColor" stroke-width="1.5" stroke-linecap="round"/>
  </symbol>
  <symbol id="icon-trashall" viewBox="0 0 24 24">

<path d="M19 9H22M19 14H22M19 19H21M16 6L15.1991 18.0129C15.129 19.065 15.0939 19.5911 14.8667 19.99C14.6666 20.3412 14.3648 20.6235 14.0011 20.7998C13.588 21 13.0607 21 12.0062 21H7.99377C6.93927 21 6.41202 21 5.99889 20.7998C5.63517 20.6235 5.33339 20.3412 5.13332 19.99C4.90607 19.5911 4.871 19.065 4.80086 18.0129L4 6M2 6H18M14 6L13.7294 5.18807C13.4671 4.40125 13.3359 4.00784 13.0927 3.71698C12.8779 3.46013 12.6021 3.26132 12.2905 3.13878C11.9376 3 11.523 3 10.6936 3H9.30643C8.47705 3 8.06236 3 7.70951 3.13878C7.39792 3.26132 7.12208 3.46013 6.90729 3.71698C6.66405 4.00784 6.53292 4.40125 6.27064 5.18807L6 6M12 10V17M8 10L7.99995 16.9998" stroke="currentColor" stroke-width="2" stroke-linecap="round" stroke-linejoin="round"/>
  </symbol>
  <symbol id="icon-dark" viewBox="0 0 24 24">

<path d="M13 6V3M18.5 12V7M14.5 4.5H11.5M21 9.5H16M15.5548 16.8151C16.7829 16.8151 17.9493 16.5506 19 16.0754C17.6867 18.9794 14.7642 21 11.3698 21C6.74731 21 3 17.2527 3 12.6302C3 9.23576 5.02061 6.31331 7.92462 5C7.44944 6.05072 7.18492 7.21708 7.18492 8.44523C7.18492 13.0678 10.9322 16.8151 15.5548 16.8151Z" stroke="currentColor" stroke-width="2" stroke-linecap="round" stroke-linejoin="round"/>
  </symbol>
  <symbol id="icon-light" viewBox="0 0 24 24">

<path d="M8 22H16" stroke="currentColor" stroke-width="1.5" stroke-linecap="round" stroke-linejoin="round"/>
<path d="M5 19H19" stroke="currentColor" stroke-width="1.5" stroke-linecap="round" stroke-linejoin="round"/>
<path d="M2 16H22" stroke="currentColor" stroke-width="1.5" stroke-linecap="round" stroke-linejoin="round"/>
<path d="M10 6.34141C10.6256 6.12031 11.2987 6 12 6C15.3137 6 18 8.68629 18 12C18 13.5217 17.4335 14.911 16.5 15.9687H7.5C6.56645 14.911 6 13.5217 6 12C6 11.2987 6.12031 10.6256 6.34141 10" stroke="currentColor" stroke-width="1.5" stroke-linecap="round"/>
<path d="M12 2V3" stroke="currentColor" stroke-width="1.5" stroke-linecap="round"/>
<path d="M22 12L21 12" stroke="currentColor" stroke-width="1.5" stroke-linecap="round"/>
<path d="M3 12L2 12" stroke="currentColor" stroke-width="1.5" stroke-linecap="round"/>
<path d="M19.0708 4.92969L18.678 5.32252" stroke="currentColor" stroke-width="1.5" stroke-linecap="round"/>
<path d="M5.32178 5.32227L4.92894 4.92943" stroke="currentColor" stroke-width="1.5" stroke-linecap="round"/>
  </symbol>
</svg>
