<svg xmlns="http://www.w3.org/2000/svg" viewBox="0 0 24 24" fill="none" stroke="currentColor" stroke-width="2.3" stroke-linecap="round" stroke-linejoin="round">
  <path d="M12 3.75a2.25 2.25 0 0 1 2.2 1.79l.14.67a1.5 1.5 0 0 0 1.84 1.15l.67-.17a2.25 2.25 0 0 1 2.63 1.2 2.25 2.25 0 0 1-.4 2.86l-.5.48a1.5 1.5 0 0 0 0 2.16l.5.48a2.25 2.25 0 0 1 .4 2.86 2.25 2.25 0 0 1-2.63 1.2l-.67-.17a1.5 1.5 0 0 0-1.84 1.15l-.14.67a2.25 2.25 0 0 1-4.4 0l-.14-.67a1.5 1.5 0 0 0-1.84-1.15l-.67.17a2.25 2.25 0 0 1-2.63-1.2 2.25 2.25 0 0 1 .4-2.86l.5-.48a1.5 1.5 0 0 0 0-2.16l-.5-.48a2.25 2.25 0 0 1-.4-2.86 2.25 2.25 0 0 1 2.63-1.2l.67.17a1.5 1.5 0 0 0 1.84-1.15l.14-.67A2.25 2.25 0 0 1 12 3.75Z"/>
  <circle cx="12" cy="12" r="2.75"/>
</svg>
